<?xml version="1.0" encoding="iso-8859-1"?>
<!-- Generator: Adobe Illustrator 19.0.0, SVG Export Plug-In . SVG Version: 6.00 Build 0)  -->
<svg version="1.1" id="Layer_1" xmlns="http://www.w3.org/2000/svg" xmlns:xlink="http://www.w3.org/1999/xlink" x="0px" y="0px"
	 viewBox="0 0 512 512" style="enable-background:new 0 0 512 512;" xml:space="preserve">
<path style="fill:#FF5023;" d="M84.664,279.473c-8.477,17.953-22.32,29.647-37.957,29.647C20.912,309.12,0,277.299,0,238.048
	s20.912-71.072,46.707-71.072c16.103,0,30.303,12.401,38.701,31.269L84.664,279.473z"/>
<path style="fill:#FF7956;" d="M477.472,406.671L67.854,274.027c-33.975-11.002-34.058-58.875-0.121-69.992l76.19-24.962
	l58.862-19.285l274.687-89.993v336.876H477.472z"/>
<g>
	<path style="fill:#FF5023;" d="M477.472,69.795l-73.471,24.07c-10.026,29.476-16.73,83.102-16.73,144.368
		c0,61.48,6.752,115.266,16.835,144.676v0.005l73.365,23.758V69.795z"/>
	<path style="fill:#FF5023;" d="M164.823,211.524c-3.445,0-6.602-2.287-7.555-5.77c-1.142-4.175,1.317-8.486,5.491-9.628
		l167.279-45.763c4.186-1.14,8.486,1.318,9.628,5.491c1.142,4.175-1.317,8.486-5.491,9.628l-167.279,45.763
		C166.204,211.434,165.508,211.524,164.823,211.524z"/>
</g>
<ellipse style="fill:#891C00;" cx="477.477" cy="238.237" rx="34.523" ry="168.438"/>
<path style="fill:#FF7956;" d="M265.805,338.063v56.98c0,7.201-7.391,12.036-13.989,9.15l-104.861-45.867
	c-5.365-2.347-8.831-7.647-8.831-13.502v-48.108l-33.631-10.891v73.241c0,8.904,5.27,16.962,13.428,20.529l137.093,59.965
	c20.572,8.999,43.617-6.074,43.617-28.529v-62.339L265.805,338.063z"/>
<g style="opacity:0.36;">
	<polygon style="fill:#891C00;" points="138.124,296.326 104.493,285.435 104.493,314.238 138.124,325.189 	"/>
	<polygon style="fill:#891C00;" points="298.631,348.302 265.805,337.673 265.805,366.766 298.631,377.455 	"/>
</g>
<g>
</g>
<g>
</g>
<g>
</g>
<g>
</g>
<g>
</g>
<g>
</g>
<g>
</g>
<g>
</g>
<g>
</g>
<g>
</g>
<g>
</g>
<g>
</g>
<g>
</g>
<g>
</g>
<g>
</g>
</svg>
